# xmcd
#
# Track frame offsets: 
#        150
#        33872
#        51749
#        90627
#        105490
#        123740
#        136983
#        157422
#        170284
#
# Disc length: 2587 seconds
#
# Revision: 0
# Processed by: cddbd v1.5.2PL0 Copyright (c) Steve Scherf et al.
# Submitted via: ExactAudioCopyFreeDBPlugin 1.0
#
DISCID=7c0a1909
DTITLE=One Eleven Heavy - Desire Path
DYEAR=2019
DGENRE=Roots Rock
TTITLE0=Chickenshit
TTITLE1=Wild Hair
TTITLE2=Hot Potato Soup
TTITLE3=Stir
TTITLE4=Fickle Wind
TTITLE5=Mardi Gras
TTITLE6=House Of Cards
TTITLE7=Too Much, Too Much
TTITLE8=Three Poisons
EXTD=
EXTT0=
EXTT1=
EXTT2=
EXTT3=
EXTT4=
EXTT5=
EXTT6=
EXTT7=
EXTT8=
PLAYORDER=
